<mxfile host="app.diagrams.net" agent="Mozilla/5.0 (Macintosh; Intel Mac OS X 10_15_7) AppleWebKit/537.36 (KHTML, like Gecko) Chrome/131.0.0.0 Safari/537.36" version="24.9.1">
  <diagram name="第 1 页" id="me86KYe3C33r0nhlYvUd">
    <mxGraphModel dx="1478" dy="728" grid="1" gridSize="10" guides="1" tooltips="1" connect="1" arrows="1" fold="1" page="1" pageScale="1" pageWidth="1169" pageHeight="827" math="0" shadow="0">
      <root>
        <mxCell id="0" />
        <mxCell id="1" parent="0" />
        <mxCell id="Du_18PAJSAdSb2DS7K8T-1" value="" style="shape=image;html=1;verticalAlign=top;verticalLabelPosition=bottom;labelBackgroundColor=#ffffff;imageAspect=0;aspect=fixed;image=https://cdn3.iconfinder.com/data/icons/document-icons-2/30/647716-pdf-128.png" parent="1" vertex="1">
          <mxGeometry x="137" y="691" width="40" height="40" as="geometry" />
        </mxCell>
        <mxCell id="Du_18PAJSAdSb2DS7K8T-2" value="" style="shape=image;html=1;verticalAlign=top;verticalLabelPosition=bottom;labelBackgroundColor=#ffffff;imageAspect=0;aspect=fixed;image=https://cdn3.iconfinder.com/data/icons/document-icons-2/30/647719-word-128.png" parent="1" vertex="1">
          <mxGeometry x="203" y="646" width="40" height="40" as="geometry" />
        </mxCell>
        <mxCell id="Du_18PAJSAdSb2DS7K8T-6" value="" style="sketch=0;outlineConnect=0;fontColor=#232F3E;gradientColor=none;fillColor=#ED7100;strokeColor=none;dashed=0;verticalLabelPosition=bottom;verticalAlign=top;align=center;html=1;fontSize=12;fontStyle=0;aspect=fixed;pointerEvents=1;shape=mxgraph.aws4.container_registry_image;" parent="1" vertex="1">
          <mxGeometry x="73" y="721" width="40" height="40" as="geometry" />
        </mxCell>
        <mxCell id="Du_18PAJSAdSb2DS7K8T-7" value="" style="shadow=0;dashed=0;html=1;strokeColor=none;fillColor=#4495D1;labelPosition=center;verticalLabelPosition=bottom;verticalAlign=top;align=center;outlineConnect=0;shape=mxgraph.veeam.audio_file;" parent="1" vertex="1">
          <mxGeometry x="73" y="641" width="40" height="50" as="geometry" />
        </mxCell>
        <mxCell id="Du_18PAJSAdSb2DS7K8T-8" value="" style="shape=image;html=1;verticalAlign=top;verticalLabelPosition=bottom;labelBackgroundColor=#ffffff;imageAspect=0;aspect=fixed;image=https://cdn4.iconfinder.com/data/icons/file-extension-names-vol-5-1/512/19-128.png" parent="1" vertex="1">
          <mxGeometry x="129" y="761" width="48" height="48" as="geometry" />
        </mxCell>
        <mxCell id="Du_18PAJSAdSb2DS7K8T-9" value="" style="shape=image;html=1;verticalAlign=top;verticalLabelPosition=bottom;labelBackgroundColor=#ffffff;imageAspect=0;aspect=fixed;image=https://cdn1.iconfinder.com/data/icons/bootstrap-vol-3/16/file-text-128.png" parent="1" vertex="1">
          <mxGeometry x="123" y="599" width="40" height="40" as="geometry" />
        </mxCell>
        <mxCell id="Du_18PAJSAdSb2DS7K8T-10" value="" style="sketch=0;aspect=fixed;pointerEvents=1;shadow=0;dashed=0;html=1;strokeColor=none;labelPosition=center;verticalLabelPosition=bottom;verticalAlign=top;align=center;shape=mxgraph.mscae.other.powerpoint;fillColor=#DE5D24;" parent="1" vertex="1">
          <mxGeometry x="203" y="721" width="40" height="40" as="geometry" />
        </mxCell>
        <mxCell id="Du_18PAJSAdSb2DS7K8T-12" value="" style="shape=image;editableCssRules=.*;verticalLabelPosition=bottom;labelBackgroundColor=default;verticalAlign=top;aspect=fixed;imageAspect=0;image=data:image/svg+xml,PHN2ZyB4bWxucz0iaHR0cDovL3d3dy53My5vcmcvMjAwMC9zdmciIHZpZXdCb3g9Ii0wLjUgLTAuNSAyNy45NDcgMjgiIGhlaWdodD0iMjgiIHdpZHRoPSIyNy45NDciPiYjeGE7CSAgPHN0eWxlIHR5cGU9InRleHQvY3NzIj4uc3QwIHsgc3RvcC1jb2xvcjogcmdiKDkxLCAxMTUsIDEzOSk7IH0gLnN0MSB7IHN0b3AtY29sb3I6IHJnYigzNCwgNTMsIDcyKTsgfSA8L3N0eWxlPiYjeGE7CTxkZWZzPiYjeGE7CQk8bGluZWFyR3JhZGllbnQgZ3JhZGllbnRVbml0cz0idXNlclNwYWNlT25Vc2UiIHkyPSIyNS4yNjkiIHgyPSIyMy40NSIgeTE9IjMuNDc0IiB4MT0iMi4wMzQiIGlkPSJBIj4mI3hhOwkJCTxzdG9wIGNsYXNzPSJzdDAiLz4mI3hhOwkJCTxzdG9wIGNsYXNzPSJzdDEiIG9mZnNldD0iMSIvPiYjeGE7CQk8L2xpbmVhckdyYWRpZW50PiYjeGE7CTwvZGVmcz4mI3hhOwk8cGF0aCBmaWxsPSJ1cmwoI0EpIiBkPSJNMTIuMTg5IDIwLjk5MmMuMTQzLS4xNDQuMzEzLS4yNTcuNTAyLS4zMzJzLjM5LS4xMTEuNTkyLS4xMDVjLjQzOCAwIC43NjcuMjAxLjk4NS42MDIuMjkuMjkyLjQzOC42MzkuNDM4IDEuMDRzLS4xNDcuNzQ3LS40MzcgMS4wNGwtMi4wODEgMi4wMjNjLS43MTMuNzE4LTEuNTcgMS4yNzctMi41MTUgMS42NGE2Ljg0IDYuODQgMCAwIDEtMi43OS42MDJjLS45NjItLjAwMy0xLjkxMi0uMjA4LTIuNzktLjYwMi0uODc1LS4zNjQtMS42NzYtLjkxLTIuNDA2LTEuNjQtLjcwOS0uNjk5LTEuMjY3LTEuNTM3LTEuNjQtMi40NmE3LjQ1IDcuNDUgMCAwIDEtLjU0OC0yLjc5YzAtLjk0OC4xODItMS44NzguNTQ4LTIuNzg5cy45MS0xLjczMyAxLjY0LTIuNDYxbDQuMTU2LTQuMTAyYy43My0uNzMgMS41NS0xLjI3NyAyLjQ2LTEuNjQxYTcuMjUgNy4yNSAwIDAgMSAyLjg0NC0uNmMuOTQ4IDAgMS44NzguMiAyLjc5LjYuOTEyLjM2NiAxLjcxNS45MTIgMi40MDYgMS42NDFhMS40MiAxLjQyIDAgMCAxIC40MzggMS4wNGMwIC40MDEtLjE0NS43NDctLjQzNyAxLjAzOGExLjQyIDEuNDIgMCAwIDEtMS4wMzkuNDM4IDEuNDIgMS40MiAwIDAgMS0xLjAzOC0uNDM3Yy0uODQtLjkxLTEuODYtMS4zNjUtMy4wNjItMS4zNjVzLTIuMjQ0LjQ1NS0zLjExOCAxLjM2NWwtNC4xNTMgNC4xMDJjLS45MS44NC0xLjM2NSAxLjg2LTEuMzY1IDMuMDYzcy40NTUgMi4yNjEgMS4zNjUgMy4xNzNjLjg0Ljg3NSAxLjg2IDEuMzEzIDMuMDYzIDEuMzEzczIuMjQ0LS40MzcgMy4xMTktMS4zMTJsMi4wNzQtMi4wODF6bTEzLjAxNy0xOS4yNWMuNzI4LjY5MyAxLjI3NiAxLjQ5NSAxLjY0IDIuNDA2YTYuODQgNi44NCAwIDAgMSAuNjAyIDIuNzljMCAuOTQ5LS4yMDEgMS44NzgtLjYwMiAyLjc5LS4zNjQuODc1LS45MSAxLjY3Ny0xLjY0IDIuNDA2bC00LjEwMiA0LjFjLS43NjcuNzY3LTEuNjA1IDEuMzMtMi41MTcgMS42OTgtLjkwNC4zNjMtMS44NjguNTQ4LTIuODQyLjU0NmE3LjQ1IDcuNDUgMCAwIDEtMi43OS0uNTQ4Yy0uOTAxLS4zODMtMS43MDQtLjk2Mi0yLjM1Mi0xLjY5NmExLjM2IDEuMzYgMCAwIDEtLjQzNy0uOTgzYzAtLjQwMi4xNDUtLjc0Ny40MzgtMS4wNGExLjM2IDEuMzYgMCAwIDEgLjk4NS0uNDM3IDEuNDIgMS40MiAwIDAgMSAxLjAzOC40MzggMy44NSAzLjg1IDAgMCAwIDEuNDIzLjk4NSA0LjM5IDQuMzkgMCAwIDAgMy4zMzYgMGMuNTQ4LS4yMTkgMS4wNC0uNTQ4IDEuNDc3LS45ODVsNC4xNTYtNC4xNTZjLjg3NS0uODM4IDEuMzEzLTEuODU5IDEuMzEzLTMuMDYzcy0uNDM3LTIuMjU5LTEuMzEyLTMuMTcxYy0uODQtLjg3NS0xLjg2LTEuMzEyLTMuMDYyLTEuMzEycy0yLjI2MS40MzgtMy4xNzMgMS4zMTNsLTIuMDc1IDIuMDc3YTEuNDIgMS40MiAwIDAgMS0xLjAzOS40MzggMS40MiAxLjQyIDAgMCAxLTEuMDQtLjQzNyAxLjQyIDEuNDIgMCAwIDEtLjQzNy0xLjA0IDEuNDIgMS40MiAwIDAgMSAuNDM4LTEuMDM4bDIuMDc5LTIuMDgxYy43MjgtLjcyOCAxLjU0OS0xLjI3NiAyLjQ2LTEuNjRhNy4yNSA3LjI1IDAgMCAxIDIuODQyLS42Yy45NDggMCAxLjg3OC4yMDEgMi43OS42MDIuOTEuMzY0IDEuNzEzLjkxIDIuNDA2IDEuNjR6Ii8+JiN4YTs8L3N2Zz4=;" parent="1" vertex="1">
          <mxGeometry x="183" y="605" width="28" height="28" as="geometry" />
        </mxCell>
        <mxCell id="Du_18PAJSAdSb2DS7K8T-13" value="" style="shape=flexArrow;endArrow=classic;html=1;rounded=0;width=10;endSize=7;endWidth=10;fillColor=#FFCCCC;strokeColor=#FF9933;" parent="1" edge="1">
          <mxGeometry width="50" height="50" relative="1" as="geometry">
            <mxPoint x="257" y="721" as="sourcePoint" />
            <mxPoint x="337" y="721" as="targetPoint" />
          </mxGeometry>
        </mxCell>
        <mxCell id="Du_18PAJSAdSb2DS7K8T-14" value="&lt;b&gt;&lt;font style=&quot;font-size: 14px;&quot;&gt;Parsers &amp;amp; Splitters&lt;/font&gt;&lt;/b&gt;&lt;div&gt;&lt;b&gt;&lt;font size=&quot;3&quot;&gt;（OCR）&lt;/font&gt;&lt;/b&gt;&lt;/div&gt;" style="rounded=1;whiteSpace=wrap;html=1;shadow=1;fillColor=#FFF2CC;strokeColor=#FF9933;" parent="1" vertex="1">
          <mxGeometry x="342" y="682" width="100" height="79" as="geometry" />
        </mxCell>
        <mxCell id="Y0FpUMWi9ijwyTFaOERX-1" value="&lt;font style=&quot;font-size: 14px;&quot;&gt;Muti Parsers Engine&lt;/font&gt;" style="text;html=1;align=center;verticalAlign=middle;whiteSpace=wrap;rounded=0;" vertex="1" parent="1">
          <mxGeometry x="342" y="651" width="100" height="30" as="geometry" />
        </mxCell>
        <mxCell id="Y0FpUMWi9ijwyTFaOERX-3" value="" style="shape=flexArrow;endArrow=classic;html=1;rounded=0;width=10;endSize=7;endWidth=10;fillColor=#FFCCCC;strokeColor=#FF9933;" edge="1" parent="1">
          <mxGeometry width="50" height="50" relative="1" as="geometry">
            <mxPoint x="450" y="721" as="sourcePoint" />
            <mxPoint x="530" y="721" as="targetPoint" />
          </mxGeometry>
        </mxCell>
        <mxCell id="Y0FpUMWi9ijwyTFaOERX-4" value="&lt;span style=&quot;font-size: 14px;&quot;&gt;&lt;b&gt;Vectorization&lt;/b&gt;&lt;/span&gt;&lt;br&gt;&lt;div&gt;&lt;span style=&quot;font-size: 14px;&quot;&gt;&lt;b&gt;（Embedding）&lt;/b&gt;&lt;/span&gt;&lt;/div&gt;" style="rounded=1;whiteSpace=wrap;html=1;shadow=1;fillColor=#FFF2CC;strokeColor=#FF9933;" vertex="1" parent="1">
          <mxGeometry x="535" y="682" width="110" height="79" as="geometry" />
        </mxCell>
        <mxCell id="Y0FpUMWi9ijwyTFaOERX-5" value="&lt;font style=&quot;font-size: 14px;&quot;&gt;Vetorization&lt;/font&gt;" style="text;html=1;align=center;verticalAlign=middle;whiteSpace=wrap;rounded=0;" vertex="1" parent="1">
          <mxGeometry x="535" y="651" width="100" height="30" as="geometry" />
        </mxCell>
        <mxCell id="Y0FpUMWi9ijwyTFaOERX-7" value="" style="shape=flexArrow;endArrow=classic;html=1;rounded=0;width=10;endSize=7;endWidth=10;fillColor=#FFCCCC;strokeColor=#FF9933;" edge="1" parent="1">
          <mxGeometry width="50" height="50" relative="1" as="geometry">
            <mxPoint x="653" y="721" as="sourcePoint" />
            <mxPoint x="733" y="721" as="targetPoint" />
          </mxGeometry>
        </mxCell>
        <mxCell id="Y0FpUMWi9ijwyTFaOERX-8" value="&lt;span style=&quot;font-size: 14px;&quot;&gt;&lt;b&gt;Database&lt;/b&gt;&lt;/span&gt;&lt;div&gt;&lt;span style=&quot;font-size: 14px;&quot;&gt;&lt;b&gt;（ES、OSS、VectorDB、Graph）&lt;/b&gt;&lt;/span&gt;&lt;/div&gt;" style="rounded=1;whiteSpace=wrap;html=1;shadow=1;fillColor=#FFF2CC;strokeColor=#FF9933;" vertex="1" parent="1">
          <mxGeometry x="738" y="682" width="110" height="79" as="geometry" />
        </mxCell>
        <mxCell id="Y0FpUMWi9ijwyTFaOERX-9" value="&lt;span style=&quot;font-size: 14px;&quot;&gt;Storage&lt;/span&gt;" style="text;html=1;align=center;verticalAlign=middle;whiteSpace=wrap;rounded=0;" vertex="1" parent="1">
          <mxGeometry x="738" y="651" width="100" height="30" as="geometry" />
        </mxCell>
        <mxCell id="Y0FpUMWi9ijwyTFaOERX-10" value="&lt;b style=&quot;&quot;&gt;&lt;font style=&quot;font-size: 18px;&quot;&gt;AI Agent &amp;amp; Workflow&lt;/font&gt;&lt;/b&gt;&lt;div&gt;&lt;b style=&quot;&quot;&gt;&lt;font size=&quot;3&quot;&gt;orchastration&lt;/font&gt;&lt;/b&gt;&lt;/div&gt;&lt;div&gt;&lt;b style=&quot;&quot;&gt;&lt;font size=&quot;3&quot;&gt;（Ext Toolset）&lt;/font&gt;&lt;/b&gt;&lt;/div&gt;" style="rounded=1;whiteSpace=wrap;html=1;shadow=1;fillColor=#FFF2CC;strokeColor=#FF9933;" vertex="1" parent="1">
          <mxGeometry x="294" y="535" width="330" height="79" as="geometry" />
        </mxCell>
        <mxCell id="Y0FpUMWi9ijwyTFaOERX-11" value="" style="shape=flexArrow;endArrow=classic;html=1;rounded=0;width=10;endSize=7;endWidth=10;fillColor=#FFCCCC;strokeColor=#FF9933;" edge="1" parent="1">
          <mxGeometry width="50" height="50" relative="1" as="geometry">
            <mxPoint x="788" y="651" as="sourcePoint" />
            <mxPoint x="788" y="480" as="targetPoint" />
          </mxGeometry>
        </mxCell>
        <mxCell id="Y0FpUMWi9ijwyTFaOERX-12" value="&lt;span style=&quot;font-size: 14px;&quot;&gt;&lt;b&gt;Hybrid Retriever&lt;/b&gt;&lt;/span&gt;&lt;div&gt;&lt;b style=&quot;&quot;&gt;&lt;span style=&quot;font-size: 14px;&quot;&gt;（&lt;/span&gt;&lt;font style=&quot;font-size: 11px;&quot;&gt;Full text、Embedding、SearchEngine&lt;/font&gt;&lt;span style=&quot;font-size: 14px;&quot;&gt;）&lt;/span&gt;&lt;/b&gt;&lt;/div&gt;" style="rounded=1;whiteSpace=wrap;html=1;shadow=1;fillColor=#FFF2CC;strokeColor=#FF9933;" vertex="1" parent="1">
          <mxGeometry x="717" y="390" width="143" height="79" as="geometry" />
        </mxCell>
        <mxCell id="Y0FpUMWi9ijwyTFaOERX-13" value="" style="shape=flexArrow;endArrow=classic;html=1;rounded=0;width=10;endSize=7;endWidth=10;fillColor=#FFCCCC;strokeColor=#FF9933;exitX=0;exitY=0.25;exitDx=0;exitDy=0;" edge="1" parent="1">
          <mxGeometry width="50" height="50" relative="1" as="geometry">
            <mxPoint x="714" y="429" as="sourcePoint" />
            <mxPoint x="627" y="429.25" as="targetPoint" />
          </mxGeometry>
        </mxCell>
        <mxCell id="Y0FpUMWi9ijwyTFaOERX-15" value="Chunks" style="swimlane;whiteSpace=wrap;html=1;" vertex="1" parent="1">
          <mxGeometry x="514" y="359.5" width="110" height="140" as="geometry" />
        </mxCell>
        <mxCell id="Y0FpUMWi9ijwyTFaOERX-17" value="&lt;div style=&quot;text-align: left;&quot;&gt;&lt;span style=&quot;background-color: initial;&quot;&gt;#1 Vector Chunk&lt;/span&gt;&lt;/div&gt;&lt;div style=&quot;&quot;&gt;...&lt;/div&gt;&lt;div style=&quot;text-align: left;&quot;&gt;#7 Text Chunk&lt;/div&gt;&lt;div style=&quot;&quot;&gt;...&lt;/div&gt;&lt;div style=&quot;text-align: left;&quot;&gt;#12 Search Chunk&lt;/div&gt;&lt;div style=&quot;&quot;&gt;...&lt;/div&gt;&lt;div style=&quot;text-align: left;&quot;&gt;#14 Graph Chunk&lt;/div&gt;&lt;div&gt;&lt;br&gt;&lt;/div&gt;" style="text;html=1;align=center;verticalAlign=middle;whiteSpace=wrap;rounded=0;" vertex="1" parent="Y0FpUMWi9ijwyTFaOERX-15">
          <mxGeometry x="3" y="22.75" width="105" height="117.25" as="geometry" />
        </mxCell>
        <mxCell id="Y0FpUMWi9ijwyTFaOERX-19" value="" style="shape=flexArrow;endArrow=classic;html=1;rounded=0;width=10;endSize=7;endWidth=10;fillColor=#FFCCCC;strokeColor=#FF9933;exitX=0;exitY=0.25;exitDx=0;exitDy=0;" edge="1" parent="1">
          <mxGeometry width="50" height="50" relative="1" as="geometry">
            <mxPoint x="510" y="429" as="sourcePoint" />
            <mxPoint x="423" y="429.25" as="targetPoint" />
          </mxGeometry>
        </mxCell>
        <mxCell id="Y0FpUMWi9ijwyTFaOERX-20" value="&lt;span style=&quot;font-size: 14px;&quot;&gt;&lt;b&gt;Hybrid Rerank&lt;/b&gt;&lt;/span&gt;&lt;div&gt;&lt;b style=&quot;&quot;&gt;&lt;span style=&quot;font-size: 14px;&quot;&gt;（&lt;/span&gt;&lt;span style=&quot;font-size: 11px;&quot;&gt;Rerank Algorithm，ML&lt;/span&gt;&lt;span style=&quot;font-size: 14px;&quot;&gt;）&lt;/span&gt;&lt;/b&gt;&lt;/div&gt;" style="rounded=1;whiteSpace=wrap;html=1;shadow=1;fillColor=#FFF2CC;strokeColor=#FF9933;" vertex="1" parent="1">
          <mxGeometry x="276" y="390" width="143" height="79" as="geometry" />
        </mxCell>
        <mxCell id="Y0FpUMWi9ijwyTFaOERX-21" value="Ordered Chunks" style="swimlane;whiteSpace=wrap;html=1;" vertex="1" parent="1">
          <mxGeometry x="73" y="359.5" width="110" height="140" as="geometry" />
        </mxCell>
        <mxCell id="Y0FpUMWi9ijwyTFaOERX-22" value="&lt;div style=&quot;text-align: left;&quot;&gt;&lt;span style=&quot;background-color: initial;&quot;&gt;#12&amp;nbsp;&lt;/span&gt;&lt;span style=&quot;background-color: initial;&quot;&gt;Graph Chunk&lt;/span&gt;&lt;/div&gt;&lt;div style=&quot;text-align: left;&quot;&gt;#3 Text Chunk&lt;/div&gt;&lt;div style=&quot;text-align: left;&quot;&gt;#9 Search Chunk&lt;/div&gt;&lt;div style=&quot;text-align: left;&quot;&gt;#8&amp;nbsp;&lt;span style=&quot;background-color: initial;&quot;&gt;Vector Chunk&lt;/span&gt;&lt;/div&gt;&lt;div&gt;&lt;br&gt;&lt;/div&gt;" style="text;html=1;align=center;verticalAlign=middle;whiteSpace=wrap;rounded=0;" vertex="1" parent="Y0FpUMWi9ijwyTFaOERX-21">
          <mxGeometry x="3" y="22.75" width="105" height="117.25" as="geometry" />
        </mxCell>
        <mxCell id="Y0FpUMWi9ijwyTFaOERX-23" value="" style="shape=flexArrow;endArrow=classic;html=1;rounded=0;width=10;endSize=7;endWidth=10;fillColor=#FFCCCC;strokeColor=#FF9933;" edge="1" parent="1">
          <mxGeometry width="50" height="50" relative="1" as="geometry">
            <mxPoint x="270" y="430" as="sourcePoint" />
            <mxPoint x="189" y="429.25" as="targetPoint" />
          </mxGeometry>
        </mxCell>
        <mxCell id="Y0FpUMWi9ijwyTFaOERX-37" style="edgeStyle=orthogonalEdgeStyle;rounded=0;orthogonalLoop=1;jettySize=auto;html=1;entryX=0.5;entryY=1;entryDx=0;entryDy=0;" edge="1" parent="1" source="Y0FpUMWi9ijwyTFaOERX-24" target="Y0FpUMWi9ijwyTFaOERX-36">
          <mxGeometry relative="1" as="geometry" />
        </mxCell>
        <mxCell id="Y0FpUMWi9ijwyTFaOERX-24" value="&lt;span style=&quot;font-size: 14px;&quot;&gt;&lt;b&gt;Reader&lt;/b&gt;&lt;/span&gt;&lt;div&gt;&lt;span style=&quot;font-size: 14px;&quot;&gt;&lt;b&gt;（LLM、MLLM）&lt;/b&gt;&lt;/span&gt;&lt;/div&gt;" style="rounded=1;whiteSpace=wrap;html=1;shadow=1;fillColor=#CCFFCC;strokeColor=#00CC00;" vertex="1" parent="1">
          <mxGeometry x="73" y="220" width="107" height="70" as="geometry" />
        </mxCell>
        <mxCell id="Y0FpUMWi9ijwyTFaOERX-26" value="" style="shape=flexArrow;endArrow=classic;html=1;rounded=0;width=10;endSize=7;endWidth=10;fillColor=#FFCCCC;strokeColor=#FF9933;" edge="1" parent="1">
          <mxGeometry width="50" height="50" relative="1" as="geometry">
            <mxPoint x="129" y="352" as="sourcePoint" />
            <mxPoint x="129" y="299" as="targetPoint" />
          </mxGeometry>
        </mxCell>
        <mxCell id="Y0FpUMWi9ijwyTFaOERX-34" style="edgeStyle=orthogonalEdgeStyle;rounded=0;orthogonalLoop=1;jettySize=auto;html=1;" edge="1" parent="1" source="Y0FpUMWi9ijwyTFaOERX-27" target="Y0FpUMWi9ijwyTFaOERX-12">
          <mxGeometry relative="1" as="geometry" />
        </mxCell>
        <mxCell id="Y0FpUMWi9ijwyTFaOERX-27" value="&lt;span style=&quot;font-size: 14px;&quot;&gt;&lt;b&gt;Query NLU&lt;/b&gt;&lt;/span&gt;&lt;br&gt;&lt;div&gt;&lt;span style=&quot;font-size: 14px;&quot;&gt;&lt;b&gt;（LLM）&lt;/b&gt;&lt;/span&gt;&lt;/div&gt;" style="rounded=1;whiteSpace=wrap;html=1;shadow=1;fillColor=#CCFFCC;strokeColor=#00CC00;" vertex="1" parent="1">
          <mxGeometry x="734.5" y="220" width="107" height="70" as="geometry" />
        </mxCell>
        <mxCell id="Y0FpUMWi9ijwyTFaOERX-29" value="" style="endArrow=none;dashed=1;html=1;rounded=0;" edge="1" parent="1">
          <mxGeometry width="50" height="50" relative="1" as="geometry">
            <mxPoint x="70" y="197" as="sourcePoint" />
            <mxPoint x="850" y="197" as="targetPoint" />
          </mxGeometry>
        </mxCell>
        <mxCell id="Y0FpUMWi9ijwyTFaOERX-30" value="" style="sketch=0;outlineConnect=0;fontColor=#232F3E;gradientColor=none;fillColor=#232F3D;strokeColor=none;dashed=0;verticalLabelPosition=bottom;verticalAlign=top;align=center;html=1;fontSize=12;fontStyle=0;aspect=fixed;pointerEvents=1;shape=mxgraph.aws4.user;" vertex="1" parent="1">
          <mxGeometry x="738" y="60" width="40" height="40" as="geometry" />
        </mxCell>
        <mxCell id="Y0FpUMWi9ijwyTFaOERX-32" style="edgeStyle=orthogonalEdgeStyle;rounded=0;orthogonalLoop=1;jettySize=auto;html=1;" edge="1" parent="1" source="Y0FpUMWi9ijwyTFaOERX-31" target="Y0FpUMWi9ijwyTFaOERX-27">
          <mxGeometry relative="1" as="geometry" />
        </mxCell>
        <mxCell id="Y0FpUMWi9ijwyTFaOERX-33" style="edgeStyle=orthogonalEdgeStyle;rounded=0;orthogonalLoop=1;jettySize=auto;html=1;entryX=1;entryY=0.5;entryDx=0;entryDy=0;" edge="1" parent="1" source="Y0FpUMWi9ijwyTFaOERX-31" target="Y0FpUMWi9ijwyTFaOERX-24">
          <mxGeometry relative="1" as="geometry" />
        </mxCell>
        <mxCell id="Y0FpUMWi9ijwyTFaOERX-31" value="&lt;b&gt;Query&lt;/b&gt;" style="rounded=1;whiteSpace=wrap;html=1;" vertex="1" parent="1">
          <mxGeometry x="740.25" y="110" width="95.5" height="30" as="geometry" />
        </mxCell>
        <mxCell id="Y0FpUMWi9ijwyTFaOERX-35" value="" style="shape=image;html=1;verticalAlign=top;verticalLabelPosition=bottom;labelBackgroundColor=#ffffff;imageAspect=0;aspect=fixed;image=https://cdn0.iconfinder.com/data/icons/phosphor-duotone-vol-3/256/robot-duotone-128.png" vertex="1" parent="1">
          <mxGeometry x="124.75" y="55" width="50" height="50" as="geometry" />
        </mxCell>
        <mxCell id="Y0FpUMWi9ijwyTFaOERX-36" value="&lt;b&gt;Answer&lt;/b&gt;" style="rounded=1;whiteSpace=wrap;html=1;" vertex="1" parent="1">
          <mxGeometry x="79.25" y="110" width="95.5" height="30" as="geometry" />
        </mxCell>
      </root>
    </mxGraphModel>
  </diagram>
</mxfile>
